<svg width="50" height="50" viewBox="0 0 50 50" fill="none" xmlns="http://www.w3.org/2000/svg">
<rect width="50" height="50" rx="25" fill="#B7E7E5"/>
<path d="M26.0833 20.3333C26.0833 17.755 24.1441 15.6667 21.75 15.6667C19.3558 15.6667 17.4166 17.755 17.4166 20.3333C17.4166 22.9117 19.3558 25 21.75 25C24.1441 25 26.0833 22.9117 26.0833 20.3333ZM23.9166 20.3333C23.9166 21.6167 22.9416 22.6667 21.75 22.6667C20.5583 22.6667 19.5833 21.6167 19.5833 20.3333C19.5833 19.05 20.5583 18 21.75 18C22.9416 18 23.9166 19.05 23.9166 20.3333ZM13.0833 32V34.3333H30.4166V32C30.4166 28.8967 24.6425 27.3333 21.75 27.3333C18.8575 27.3333 13.0833 28.8967 13.0833 32ZM15.25 32C15.4666 31.1717 18.825 29.6667 21.75 29.6667C24.6641 29.6667 28.0116 31.16 28.25 32H15.25ZM33.6666 28.5V25H36.9166V22.6667H33.6666V19.1667H31.5V22.6667H28.25V25H31.5V28.5H33.6666Z" fill="#4CC3BE"/>
</svg>
